:SAMPLES-PER-SECOND 30
:FULLY-SPECIFIED
:DEGREES
427
root  -4.11671 41.0012 0.333799 1.98105 -84.2231 1.95099
RightUpLeg  2.44932 -1.18163 -0.93028
RightLeg  -6.90802 -24.7579 3.53213
RightFoot  1.28939 -0.251888 2.35696
RightToes  -3.13588e-008 1.75238e-005 3.56266e-009
Spine  4.06948 1.0774 -4.092
Spine1  -9.22662 0.497748 6.05262
HEad  -9.89484 -4.80534 4.99878
LeftShoulder1  0.33353 1.87806 -13.4873
LeftArm  -68.393 -14.3387 -5.94845
LeftForeArm  151.884 -65.477 -156.512
LeftHand  -1.17822 -4.50706 14.0262
RightShoulder  0.102528 -2.93942 11.7417
RightArm  -74.8505 11.4822 4.37506
RightForeArm  131.062 63.6128 156.238
RightHand  -1.04425 10.4531 -8.02356
LeftUpLeg  0.569303 0.770969 3.23697
LeftLeg  -5.12315 10.0912 -1.03123
LeftFoot  1.76991 0.407829 -3.63346
LeftToes  4.76812e-008 1.47286e-008 1.3089e-009
428
root  -4.11476 41.0017 0.340547 2.18231 -84.1322 1.5892
RightUpLeg  2.63782 -1.15074 -0.880398
RightLeg  -6.92827 -24.885 3.51816
RightFoot  1.27141 -0.249971 2.32191
RightToes  -3.13588e-008 1.75238e-005 3.56266e-009
Spine  3.54526 1.07649 -3.71514
Spine1  -9.11235 0.544226 5.64785
HEad  -8.79061 -4.94401 5.25373
LeftShoulder1  0.470322 1.22943 -13.707
LeftArm  -60.9537 -17.677 -7.20252
LeftForeArm  148.926 -69.2534 -151.67
LeftHand  -1.02703 -4.27714 12.5742
RightShoulder  0.161699 -2.63794 11.9111
RightArm  -69.2054 12.6902 5.6811
RightForeArm  128.705 64.8165 154.76
RightHand  -0.962235 10.3592 -7.46811
LeftUpLeg  0.644636 0.819083 3.2664
LeftLeg  -4.95931 9.94488 -0.986067
LeftFoot  1.70423 0.409117 -3.67641
LeftToes  4.76812e-008 1.47286e-008 1.3089e-009
429
root  -4.08596 41.0029 0.34821 2.47687 -83.8837 1.07056
RightUpLeg  2.8618 -1.18277 -0.844663
RightLeg  -6.9484 -25.1175 3.56538
RightFoot  1.30103 -0.248829 2.29897
RightToes  -3.13588e-008 1.75238e-005 3.56266e-009
Spine  2.70462 0.874888 -3.45083
Spine1  -8.34456 0.355358 5.40121
HEad  -7.75569 -5.28638 5.72575
LeftShoulder1  0.537819 0.925842 -13.8724
LeftArm  -51.6697 -21.0614 -9.18672
LeftForeArm  141.723 -72.187 -145.675
LeftHand  -1.18902 -3.99783 14.9055
RightShoulder  0.314526 -1.86853 12.3849
RightArm  -61.8457 13.3934 6.52624
RightForeArm  127.234 66.761 152.335
RightHand  -1.09574 10.635 -8.31325
LeftUpLeg  0.740522 0.882161 3.31336
LeftLeg  -4.82614 9.62003 -0.947797
LeftFoot  1.69215 0.399454 -3.55065
LeftToes  4.76812e-008 1.47286e-008 1.3089e-009
430
root  -4.04107 41.0073 0.362087 2.28369 -83.727 0.947449
RightUpLeg  3.1426 -1.27555 -0.883725
RightLeg  -6.91993 -25.1401 3.59083
RightFoot  1.32135 -0.248105 2.28265
RightToes  -3.13588e-008 1.75238e-005 3.56266e-009
Spine  2.31553 1.0478 -3.44544
Spine1  -7.89015 0.488062 5.66537
HEad  -7.2262 -5.77154 5.16988
LeftShoulder1  0.742899 0.103844 -14.9651
LeftArm  -42.1675 -23.6927 -11.073
LeftForeArm  133.411 -75.5477 -135.743
LeftHand  -0.992807 -3.75986 12.8278
RightShoulder  0.430417 -1.26988 12.344
RightArm  -53.1167 12.4526 6.86222
RightForeArm  125.387 68.6951 149.459
RightHand  -1.1389 10.5821 -8.64808
LeftUpLeg  0.948306 0.923832 3.31013
LeftLeg  -4.74361 9.4267 -0.926313
LeftFoot  1.69956 0.400334 -3.59137
LeftToes  4.76812e-008 1.47286e-008 1.3089e-009
431
root  -3.98196 41.006 0.378559 2.03287 -83.7219 0.758484
RightUpLeg  3.44175 -1.29486 -0.864403
RightLeg  -6.73069 -25.1727 3.4535
RightFoot  1.30498 -0.246088 2.24639
RightToes  -3.13588e-008 1.75238e-005 3.56266e-009
Spine  2.00456 1.27672 -3.09958
Spine1  -6.86054 0.697777 5.42857
HEad  -8.15691 -6.27372 5.39168
LeftShoulder1  0.917778 -0.525158 -16.0289
LeftArm  -31.7698 -25.8504 -14.2344
LeftForeArm  117.073 -78.4048 -119.027
LeftHand  -0.89867 -3.22141 12.3464
RightShoulder  0.480738 -1.01124 12.3243
RightArm  -43.313 10.976 6.64152
RightForeArm  124.125 70.4994 146.291
RightHand  -1.18614 10.5955 -8.98127
LeftUpLeg  1.24943 0.987869 3.31
LeftLeg  -4.55286 9.33023 -0.894226
LeftFoot  1.62141 0.395344 -3.54745
LeftToes  4.76812e-008 1.47286e-008 1.3089e-009
432
root  -3.92899 41.0071 0.400316 1.27023 -83.3947 1.31027
RightUpLeg  3.58441 -1.47612 -1.03066
RightLeg  -6.62116 -25.2844 3.49154
RightFoot  1.25662 -0.25386 2.36216
RightToes  -3.13588e-008 1.75238e-005 3.56266e-009
Spine  1.81844 1.25697 -2.6206
Spine1  -6.43597 0.742614 4.70472
HEad  -9.84404 -6.57461 5.9435
LeftShoulder1  1.01468 -0.903941 -16.2522
LeftArm  -20.0219 -26.019 -18.664
LeftForeArm  89.6619 -79.7126 -93.2849
LeftHand  -0.889062 -2.7946 12.8121
RightShoulder  0.602629 -0.4526 12.8376
RightArm  -32.0934 8.75944 5.80401
RightForeArm  122.639 72.6735 141.608
RightHand  -1.27485 10.3947 -9.73429
LeftUpLeg  1.24735 0.920526 3.19044
LeftLeg  -4.34319 9.06005 -0.825028
LeftFoot  1.62921 0.390447 -3.50654
LeftToes  4.76812e-008 1.47286e-008 1.3089e-009
433
root  -3.88752 41.009 0.435103 1.37354 -83.2011 1.19958
RightUpLeg  3.55768 -1.52107 -1.07579
RightLeg  -6.64947 -25.4625 3.53752
RightFoot  1.33385 -0.252198 2.33172
RightToes  -3.13588e-008 1.75238e-005 3.56266e-009
Spine  1.67867 1.10306 -2.28828
Spine1  -6.62214 0.62794 4.38514
HEad  -10.7829 -5.7096 5.62912
LeftShoulder1  1.27183 -1.80009 -17.3175
LeftArm  -9.34633 -24.1637 -22.5694
LeftForeArm  61.6954 -78.5409 -61.5037
LeftHand  -0.887882 -2.97833 12.5216
RightShoulder  0.711708 0.115479 12.7141
RightArm  -19.1237 6.32302 6.31202
RightForeArm  113.321 74.7077 134.454
RightHand  -1.24016 10.1349 -9.6287
LeftUpLeg  1.10779 0.845089 3.11309
LeftLeg  -4.23153 8.96761 -0.763157
LeftFoot  1.62391 0.386269 -3.47802
LeftToes  4.76812e-008 1.47286e-008 1.3089e-009
434
root  -3.88335 41.0096 0.449289 1.09042 -83.2304 1.48019
RightUpLeg  3.55855 -1.52975 -1.12592
RightLeg  -6.6367 -25.4014 3.49829
RightFoot  1.31967 -0.255038 2.3713
RightToes  -3.13588e-008 1.75238e-005 3.56266e-009
Spine  1.95455 0.826081 -2.03588
Spine1  -7.41518 0.417839 3.96397
HEad  -11.1722 -4.78252 5.80221
LeftShoulder1  1.46283 -2.31581 -18.5845
LeftArm  0.92308 -20.7749 -25.9449
LeftForeArm  42.777 -74.0101 -37.5929
LeftHand  -0.939989 -3.14158 12.9986
RightShoulder  0.713455 0.127876 12.6808
RightArm  -5.14352 4.46122 8.30692
RightForeArm  101.485 76.9507 122.502
RightHand  -1.17752 9.92068 -9.2862
LeftUpLeg  1.19588 0.847884 3.07569
LeftLeg  -4.40108 8.99601 -0.83543
LeftFoot  1.67938 0.380471 -3.42124
LeftToes  4.76812e-008 1.47286e-008 1.3089e-009
435
root  -3.87898 41.0068 0.453154 1.15445 -83.266 1.4523
RightUpLeg  3.49898 -1.50857 -1.12629
RightLeg  -6.59707 -25.4109 3.46499
RightFoot  1.29975 -0.26591 2.53571
RightToes  -3.13588e-008 1.75238e-005 3.56266e-009
Spine  1.93916 0.615965 -2.30683
Spine1  -7.81839 0.208897 4.14506
HEad  -10.7485 -5.33603 5.89244
LeftShoulder1  1.64846 -2.72815 -19.9747
LeftArm  10.2961 -16.8897 -29.6163
LeftForeArm  31.5829 -66.5168 -23.2383
LeftHand  -0.8239 -3.27653 11.2695
RightShoulder  0.854024 0.650755 13.6935
RightArm  7.57647 1.92902 9.98821
RightForeArm  82.2266 79.0425 98.6704
RightHand  -1.18505 9.77793 -9.42665
LeftUpLeg  1.13633 0.860683 3.08155
LeftLeg  -4.34994 9.00277 -0.844924
LeftFoot  1.622 0.37891 -3.42316
LeftToes  4.76812e-008 1.47286e-008 1.3089e-009
436
root  -3.87761 41.0013 0.458902 1.24658 -83.3776 1.33365
RightUpLeg  3.51064 -1.50613 -1.11353
RightLeg  -6.58913 -25.2891 3.45166
RightFoot  1.2623 -0.257611 2.40289
RightToes  -3.13588e-008 1.75238e-005 3.56266e-009
Spine  1.68941 0.606596 -2.36148
Spine1  -7.47391 0.188923 4.18633
HEad  -11.4451 -5.0676 5.83242
LeftShoulder1  1.97812 -3.39991 -22.3366
LeftArm  17.9384 -13.2032 -31.9478
LeftForeArm  30.9848 -57.2998 -14.9217
LeftHand  -0.822563 -3.33144 11.1806
RightShoulder  1.00483 1.10902 15.0333
RightArm  17.6717 -1.78322 12.4988
RightForeArm  51.2518 78.2222 66.8845
RightHand  -1.16989 9.35124 -9.5607
LeftUpLeg  1.09944 0.878876 3.09063
LeftLeg  -4.17606 9.09676 -0.820904
LeftFoot  1.49908 0.382289 -3.49836
LeftToes  4.76812e-008 1.47286e-008 1.3089e-009
